<svg width="704" height="742" viewBox="0 0 704 742" fill="none" xmlns="http://www.w3.org/2000/svg">
<g id="undraw_modern_design_v-3-wv 1">
<path id="Vector" d="M649.612 460.603V464.959C649.612 464.959 657.454 492.842 647.869 492.842C638.285 492.842 634.799 465.831 634.799 465.831V460.603H649.612Z" fill="#FFB8B8"/>
<path id="Vector_2" d="M475.346 361.271L477.088 354.3C477.088 354.3 486.673 332.517 494.515 336.874C502.357 341.23 491.03 357.785 491.03 357.785L489.287 362.142L475.346 361.271Z" fill="#FFB8B8"/>
<path id="Vector_3" d="M531.111 673.208L532.854 688.02L549.409 690.634V671.465L531.111 673.208Z" fill="#FFB8B8"/>
<path id="Vector_4" d="M622.601 668.851L624.343 690.634L643.513 688.02L640.027 667.108L622.601 668.851Z" fill="#FFB8B8"/>
<path id="Vector_5" d="M523.269 503.298L519.784 504.169L529.368 596.53V679.307L553.765 674.95L565.964 529.438L603.431 600.887L621.729 673.208L650.483 667.98L626.957 577.361L611.273 491.099L523.269 503.298Z" fill="#2F2E41"/>
<path id="Vector_6" d="M540.695 682.792C540.695 682.792 532.854 677.564 530.24 681.05C527.626 684.535 516.298 701.962 516.298 701.962C516.298 701.962 488.416 730.716 516.298 729.844C516.298 729.844 534.596 729.844 538.081 719.388C538.081 719.388 538.953 714.16 545.052 714.16C551.151 714.16 558.122 708.061 558.122 704.575C558.122 701.09 552.023 683.492 549.409 686.192C546.795 688.892 540.695 682.792 540.695 682.792Z" fill="#2F2E41"/>
<path id="Vector_7" d="M634.242 682.792C634.242 682.792 642.084 677.564 644.698 681.05C647.312 684.535 658.639 701.962 658.639 701.962C658.639 701.962 686.522 730.716 658.639 729.844C658.639 729.844 640.341 729.844 636.856 719.388C636.856 719.388 635.984 714.16 629.885 714.16C623.786 714.16 616.815 708.061 616.815 704.575C616.815 701.09 622.914 683.492 625.528 686.192C628.142 688.892 634.242 682.792 634.242 682.792Z" fill="#2F2E41"/>
<path id="Vector_8" d="M525.447 356.824C538.15 356.824 548.447 346.526 548.447 333.824C548.447 321.121 538.15 310.824 525.447 310.824C512.745 310.824 502.447 321.121 502.447 333.824C502.447 346.526 512.745 356.824 525.447 356.824Z" fill="#FFB8B8"/>
<path id="Vector_9" d="M523.705 352.122L535.903 366.934L557.686 348.636L542.003 336.438L523.705 352.122Z" fill="#FFB8B8"/>
<path id="Vector_10" d="M530.24 367.37L530.952 360.922L555.412 346.868L588.642 343.715C589.668 343.617 590.704 343.723 591.69 344.026C592.675 344.329 593.592 344.823 594.386 345.481C595.181 346.138 595.838 346.945 596.321 347.857C596.803 348.768 597.102 349.766 597.198 350.792L609.531 481.515L613.887 492.842C613.887 492.842 537.21 536.409 519.784 504.169L532.854 436.205L505.842 384.797L530.24 367.37Z" fill="#1662D4"/>
<path id="Vector_11" d="M589.49 345.587C590.023 345.498 590.543 345.35 591.042 345.144C592.64 344.569 594.381 344.525 596.005 345.02C597.629 345.515 599.05 346.521 600.056 347.889L639.156 401.352L653.969 463.217H633.057L619.115 421.393L596.461 391.767L589.49 345.587Z" fill="#1662D4"/>
<path id="Vector_12" d="M512.813 383.054L505.842 384.797L484.93 403.095L491.901 361.271L474.474 357.785L460.969 427.928L470.553 437.512L525.012 415.293L512.813 383.054Z" fill="#1662D4"/>
<path id="Vector_13" d="M534.606 333.749C534.606 333.749 525.159 319.875 519.751 324.443C514.344 329.011 499.184 337.971 495.99 330.879C492.796 323.786 505.072 310.793 514.337 307.686C523.602 304.58 539.872 300.452 544.974 314.149C548.046 322.84 549.071 332.122 547.969 341.274L534.606 333.749Z" fill="#2F2E41"/>
<path id="Vector_14" d="M535.561 336.416C536.859 335.945 537.222 333.669 536.373 331.333C535.524 328.997 533.784 327.486 532.486 327.958C531.189 328.43 530.825 330.706 531.674 333.041C532.523 335.377 534.264 336.888 535.561 336.416Z" fill="#FFB8B8"/>
<g id="Phone">
<g id="Group 1">
<path id="Vector_15" d="M408.889 179.947H404.891V70.4019C404.891 62.0758 403.251 53.8313 400.064 46.139C396.878 38.4467 392.208 31.4573 386.32 25.5699C380.433 19.6825 373.444 15.0124 365.751 11.8261C358.059 8.6399 349.815 6.99997 341.488 7H109.402C101.076 6.99998 92.8314 8.6399 85.1391 11.8261C77.4468 15.0124 70.4574 19.6825 64.57 25.5699C58.6826 31.4574 54.0124 38.4467 50.8262 46.139C47.6399 53.8313 46 62.0758 46 70.4019V671.376C46 679.702 47.6399 687.947 50.8262 695.639C54.0124 703.331 58.6826 710.321 64.57 716.208C70.4574 722.096 77.4468 726.766 85.1391 729.952C92.8314 733.138 101.076 734.778 109.402 734.778H341.488C349.815 734.778 358.059 733.138 365.751 729.952C373.444 726.766 380.433 722.096 386.32 716.208C392.208 710.321 396.878 703.331 400.064 695.639C403.251 687.947 404.891 679.702 404.891 671.376V257.923H408.889V179.947Z" fill="#3F3D56"/>
<path id="Vector_16" d="M344.047 23.495H313.752C315.145 26.9106 315.677 30.6165 315.3 34.286C314.924 37.9556 313.651 41.4763 311.593 44.538C309.536 47.5997 306.757 50.1084 303.501 51.8431C300.246 53.5778 296.613 54.4852 292.925 54.4855H159.965C156.276 54.4852 152.644 53.5778 149.389 51.8431C146.133 50.1084 143.354 47.5997 141.297 44.538C139.239 41.4763 137.966 37.9556 137.589 34.286C137.213 30.6164 137.745 26.9106 139.138 23.4949H110.842C104.625 23.4949 98.4677 24.7196 92.7232 27.099C86.9787 29.4785 81.7591 32.9661 77.3625 37.3627C72.9658 41.7594 69.4782 46.979 67.0988 52.7235C64.7193 58.468 63.4946 64.6249 63.4946 70.8427V670.935C63.4946 677.153 64.7193 683.31 67.0988 689.054C69.4782 694.799 72.9658 700.019 77.3625 704.415C81.7591 708.812 86.9787 712.299 92.7232 714.679C98.4677 717.058 104.625 718.283 110.842 718.283H344.047C350.265 718.283 356.422 717.058 362.166 714.679C367.911 712.299 373.13 708.812 377.527 704.415C381.923 700.019 385.411 694.799 387.79 689.054C390.17 683.31 391.395 677.153 391.395 670.935V70.8427C391.395 64.6249 390.17 58.468 387.79 52.7235C385.411 46.979 381.923 41.7594 377.527 37.3628C373.13 32.9661 367.911 29.4785 362.166 27.0991C356.422 24.7196 350.265 23.495 344.047 23.495V23.495Z" fill="white"/>
<path id="Vector_17" d="M259.867 184.704H177.207V192.38H259.867V184.704Z" fill="#E98B10"/>
<path id="Vector_18" d="M321.276 211.259H177.207V218.935H321.276V211.259Z" fill="#E6E6E6"/>
<path id="Vector_19" d="M321.135 237.813H177.207V245.489H321.135V237.813Z" fill="#E6E6E6"/>
<path id="Vector_20" d="M160.077 184.818H98.6674V246.228H160.077V184.818Z" fill="#E98B10"/>
<path id="Vector_21" d="M259.867 345.904H177.207V353.58H259.867V345.904Z" fill="#E98B10"/>
<path id="Vector_22" d="M321.276 372.458H177.207V380.134H321.276V372.458Z" fill="#E6E6E6"/>
<path id="Vector_23" d="M321.135 399.012H177.207V406.688H321.135V399.012Z" fill="#E6E6E6"/>
<path id="Vector_24" d="M160.077 346.018H98.6674V407.427H160.077V346.018Z" fill="#E98B10"/>
<path id="Vector_25" d="M259.867 507.103H177.207V514.779H259.867V507.103Z" fill="#E98B10"/>
<path id="Vector_26" d="M321.276 533.657H177.207V541.334H321.276V533.657Z" fill="#E6E6E6"/>
<path id="Vector_27" d="M321.135 560.212H177.207V567.888H321.135V560.212Z" fill="#E6E6E6"/>
<path id="Vector_28" d="M160.077 507.217H98.6674V568.626H160.077V507.217Z" fill="#E98B10"/>
</g>
</g>
</g>
</svg>
