<?xml version="1.0" standalone="no"?>
<!DOCTYPE svg PUBLIC "-//W3C//DTD SVG 20010904//EN"
 "http://www.w3.org/TR/2001/REC-SVG-20010904/DTD/svg10.dtd">
<svg version="1.0" xmlns="http://www.w3.org/2000/svg"
 width="4000.000000pt" height="3997.000000pt" viewBox="0 0 4000.000000 3997.000000"
 preserveAspectRatio="xMidYMid meet">
<metadata>
Created by potrace 1.16, written by Peter Selinger 2001-2019
</metadata>
<g transform="translate(0.000000,3997.000000) scale(0.100000,-0.100000)"
fill="#000000" stroke="none">
<path d="M24591 5954 c0 -11 3 -14 6 -6 3 7 2 16 -1 19 -3 4 -6 -2 -5 -13z"/>
<path d="M24790 5576 c0 -2 8 -10 18 -17 15 -13 16 -12 3 4 -13 16 -21 21 -21
13z"/>
<path d="M25075 5160 c10 -11 20 -20 23 -20 3 0 -3 9 -13 20 -10 11 -20 20
-23 20 -3 0 3 -9 13 -20z"/>
<path d="M25590 4900 c8 -5 20 -10 25 -10 6 0 3 5 -5 10 -8 5 -19 10 -25 10
-5 0 -3 -5 5 -10z"/>
<path d="M31893 4603 c32 -2 81 -2 110 0 29 2 3 3 -58 3 -60 0 -84 -1 -52 -3z"/>
<path d="M34908 4603 c7 -3 16 -2 19 1 4 3 -2 6 -13 5 -11 0 -14 -3 -6 -6z"/>
<path d="M34953 4603 c9 -2 23 -2 30 0 6 3 -1 5 -18 5 -16 0 -22 -2 -12 -5z"/>
<path d="M31668 4593 c12 -2 30 -2 40 0 9 3 -1 5 -23 4 -22 0 -30 -2 -17 -4z"/>
<path d="M35118 4593 c7 -3 16 -2 19 1 4 3 -2 6 -13 5 -11 0 -14 -3 -6 -6z"/>
<path d="M31533 4583 c9 -2 23 -2 30 0 6 3 -1 5 -18 5 -16 0 -22 -2 -12 -5z"/>
<path d="M31368 4573 c12 -2 32 -2 45 0 12 2 2 4 -23 4 -25 0 -35 -2 -22 -4z"/>
<path d="M35318 4573 c7 -3 16 -2 19 1 4 3 -2 6 -13 5 -11 0 -14 -3 -6 -6z"/>
<path d="M30478 4563 c18 -2 45 -2 60 0 15 2 0 4 -33 4 -33 0 -45 -2 -27 -4z"/>
<path d="M30318 4553 c7 -3 16 -2 19 1 4 3 -2 6 -13 5 -11 0 -14 -3 -6 -6z"/>
<path d="M35488 4553 c7 -3 16 -2 19 1 4 3 -2 6 -13 5 -11 0 -14 -3 -6 -6z"/>
<path d="M26708 4543 c7 -3 16 -2 19 1 4 3 -2 6 -13 5 -11 0 -14 -3 -6 -6z"/>
<path d="M35558 4543 c7 -3 16 -2 19 1 4 3 -2 6 -13 5 -11 0 -14 -3 -6 -6z"/>
<path d="M26768 4533 c7 -3 16 -2 19 1 4 3 -2 6 -13 5 -11 0 -14 -3 -6 -6z"/>
<path d="M35618 4533 c7 -3 16 -2 19 1 4 3 -2 6 -13 5 -11 0 -14 -3 -6 -6z"/>
<path d="M28223 4523 c15 -2 37 -2 50 0 12 2 0 4 -28 4 -27 0 -38 -2 -22 -4z"/>
<path d="M28378 4513 c7 -3 16 -2 19 1 4 3 -2 6 -13 5 -11 0 -14 -3 -6 -6z"/>
<path d="M28448 4503 c6 -2 18 -2 25 0 6 3 1 5 -13 5 -14 0 -19 -2 -12 -5z"/>
<path d="M29928 4503 c6 -2 18 -2 25 0 6 3 1 5 -13 5 -14 0 -19 -2 -12 -5z"/>
<path d="M28533 4493 c9 -2 23 -2 30 0 6 3 -1 5 -18 5 -16 0 -22 -2 -12 -5z"/>
<path d="M29773 4493 c9 -2 23 -2 30 0 6 3 -1 5 -18 5 -16 0 -22 -2 -12 -5z"/>
<path d="M36088 4453 c7 -3 16 -2 19 1 4 3 -2 6 -13 5 -11 0 -14 -3 -6 -6z"/>
<path d="M36368 4403 c7 -3 16 -2 19 1 4 3 -2 6 -13 5 -11 0 -14 -3 -6 -6z"/>
<path d="M36468 4383 c7 -3 16 -2 19 1 4 3 -2 6 -13 5 -11 0 -14 -3 -6 -6z"/>
<path d="M34228 4373 c7 -3 16 -2 19 1 4 3 -2 6 -13 5 -11 0 -14 -3 -6 -6z"/>
<path d="M34308 4373 c7 -3 16 -2 19 1 4 3 -2 6 -13 5 -11 0 -14 -3 -6 -6z"/>
<path d="M34422 4373 c37 -2 100 -2 140 0 40 1 10 3 -67 3 -77 0 -110 -1 -73
-3z"/>
<path d="M34698 4373 c34 -2 90 -2 125 0 34 2 6 3 -63 3 -69 0 -97 -1 -62 -3z"/>
<path d="M33173 4363 c31 -2 83 -2 115 0 31 2 5 3 -58 3 -63 0 -89 -1 -57 -3z"/>
<path d="M35028 4363 c12 -2 30 -2 40 0 9 3 -1 5 -23 4 -22 0 -30 -2 -17 -4z"/>
<path d="M32565 4349 c-110 -3 -211 -8 -225 -11 -14 -2 -31 1 -39 6 -11 8 -13
8 -7 -1 5 -9 1 -13 -10 -13 -44 0 -1 -9 71 -15 156 -12 652 -28 644 -20 -4 3
-26 8 -50 11 -24 3 -74 8 -111 13 -46 5 -69 4 -72 -3 -3 -6 -5 -5 -5 2 -1 8
-6 10 -13 6 -7 -4 -10 -3 -5 1 4 5 33 10 65 13 31 2 104 7 162 12 104 8 104 8
-50 6 -85 0 -245 -4 -355 -7z m158 -26 c-7 -2 -19 -2 -25 0 -7 3 -2 5 12 5 14
0 19 -2 13 -5z"/>
<path d="M35128 4353 c6 -2 18 -2 25 0 6 3 1 5 -13 5 -14 0 -19 -2 -12 -5z"/>
<path d="M26528 4343 c7 -3 16 -2 19 1 4 3 -2 6 -13 5 -11 0 -14 -3 -6 -6z"/>
<path d="M35213 4343 c9 -2 23 -2 30 0 6 3 -1 5 -18 5 -16 0 -22 -2 -12 -5z"/>
<path d="M26568 4333 c7 -3 16 -2 19 1 4 3 -2 6 -13 5 -11 0 -14 -3 -6 -6z"/>
<path d="M35293 4333 c9 -2 25 -2 35 0 9 3 1 5 -18 5 -19 0 -27 -2 -17 -5z"/>
<path d="M36738 4333 c6 -2 18 -2 25 0 6 3 1 5 -13 5 -14 0 -19 -2 -12 -5z"/>
<path d="M35378 4323 c6 -2 18 -2 25 0 6 3 1 5 -13 5 -14 0 -19 -2 -12 -5z"/>
<path d="M36798 4323 c7 -3 16 -2 19 1 4 3 -2 6 -13 5 -11 0 -14 -3 -6 -6z"/>
<path d="M35448 4313 c6 -2 18 -2 25 0 6 3 1 5 -13 5 -14 0 -19 -2 -12 -5z"/>
<path d="M26688 4303 c6 -2 18 -2 25 0 6 3 1 5 -13 5 -14 0 -19 -2 -12 -5z"/>
<path d="M30385 4299 c-66 -5 -176 -17 -245 -28 -113 -17 -192 -19 -839 -20
-393 -1 -717 -3 -719 -6 -3 -3 300 -6 674 -7 373 -1 686 -2 694 -4 8 -1 26 -2
39 -3 31 -1 23 -10 -12 -13 -15 -1 -27 -5 -27 -9 0 -3 -6 -6 -12 -7 -46 -4
-104 -15 -117 -21 -21 -11 -163 -26 -273 -30 -21 0 -38 -4 -38 -8 0 -11 119
-6 220 8 47 7 95 13 107 13 12 1 25 4 29 9 4 4 17 7 29 7 11 0 46 6 76 14 30
8 79 18 109 21 30 4 69 8 85 10 17 2 41 7 55 10 40 8 109 16 185 20 39 2 108
7 155 11 126 10 163 12 184 13 33 2 7 15 -32 17 -20 1 -75 4 -122 7 -47 2
-139 0 -205 -4z"/>
<path d="M35498 4303 c6 -2 18 -2 25 0 6 3 1 5 -13 5 -14 0 -19 -2 -12 -5z"/>
<path d="M26763 4293 c9 -2 25 -2 35 0 9 3 1 5 -18 5 -19 0 -27 -2 -17 -5z"/>
<path d="M35558 4293 c6 -2 18 -2 25 0 6 3 1 5 -13 5 -14 0 -19 -2 -12 -5z"/>
<path d="M23189 4285 c-3 -5 -6 -26 -8 -45 -1 -19 -9 -45 -17 -57 -17 -27 -71
-56 -90 -49 -15 6 -28 -9 -20 -23 8 -12 87 16 113 41 13 12 25 36 29 53 6 36
2 95 -7 80z"/>
<path d="M28268 4283 c12 -2 32 -2 45 0 12 2 2 4 -23 4 -25 0 -35 -2 -22 -4z"/>
<path d="M33035 4280 c30 -10 48 -14 120 -25 26 -4 36 -2 30 4 -10 10 -33 14
-130 25 -42 5 -45 4 -20 -4z"/>
<path d="M35608 4283 c7 -3 16 -2 19 1 4 3 -2 6 -13 5 -11 0 -14 -3 -6 -6z"/>
<path d="M28363 4273 c9 -2 23 -2 30 0 6 3 -1 5 -18 5 -16 0 -22 -2 -12 -5z"/>
<path d="M35648 4273 c6 -2 18 -2 25 0 6 3 1 5 -13 5 -14 0 -19 -2 -12 -5z"/>
<path d="M28438 4263 c6 -2 18 -2 25 0 6 3 1 5 -13 5 -14 0 -19 -2 -12 -5z"/>
<path d="M33206 4261 c-6 -9 48 -22 114 -26 133 -10 304 -17 300 -13 -3 3 -60
9 -128 12 -68 4 -129 9 -135 11 -7 2 -38 6 -70 9 -32 3 -62 8 -67 11 -5 3 -11
1 -14 -4z"/>
<path d="M35749 4250 c127 -38 98 -45 -157 -42 -118 1 -213 0 -211 -2 12 -13
491 -25 541 -14 10 2 21 8 25 12 4 4 4 7 -2 5 -5 -1 -23 3 -40 10 -33 14 -189
51 -208 50 -7 0 17 -9 52 -19z"/>
<path d="M23149 4243 c-13 -16 -12 -17 4 -4 16 13 21 21 13 21 -2 0 -10 -8
-17 -17z"/>
<path d="M28503 4253 c9 -2 25 -2 35 0 9 3 1 5 -18 5 -19 0 -27 -2 -17 -5z"/>
<path d="M33633 4224 c3 -5 45 -10 93 -12 48 -1 85 0 82 3 -10 10 -181 18
-175 9z"/>
<path d="M33825 4221 c7 -7 54 -9 248 -11 71 -1 131 1 134 4 4 3 -45 7 -108 7
-63 1 -151 3 -197 4 -45 1 -80 0 -77 -4z"/>
<path d="M37218 4223 c7 -3 16 -2 19 1 4 3 -2 6 -13 5 -11 0 -14 -3 -6 -6z"/>
<path d="M26462 4209 c5 -15 78 -31 78 -17 0 4 -9 8 -21 8 -11 0 -30 5 -41 11
-16 9 -19 8 -16 -2z"/>
<path d="M34225 4210 c3 -5 10 -10 16 -10 5 0 9 5 9 10 0 6 -7 10 -16 10 -8 0
-12 -4 -9 -10z"/>
<path d="M35150 4210 c0 -5 5 -10 11 -10 5 0 7 5 4 10 -3 6 -8 10 -11 10 -2 0
-4 -4 -4 -10z"/>
<path d="M35183 4208 c-2 -5 40 -7 94 -6 99 1 90 5 -25 10 -35 2 -66 0 -69 -4z"/>
<path d="M37268 4213 c7 -3 16 -2 19 1 4 3 -2 6 -13 5 -11 0 -14 -3 -6 -6z"/>
<path d="M34281 4206 c9 -9 290 -26 424 -25 66 0 131 0 144 0 14 -1 22 2 18 5
-3 3 -90 7 -194 8 -103 2 -235 7 -293 11 -58 4 -102 5 -99 1z"/>
<path d="M34948 4200 c-69 -9 -70 -19 -1 -13 32 3 59 7 61 8 9 8 -18 10 -60 5z"/>
<path d="M35024 4201 c5 -8 106 -4 115 5 2 2 -24 4 -58 4 -34 0 -60 -4 -57 -9z"/>
<path d="M26550 4191 c0 -10 21 -14 155 -31 113 -14 165 -17 165 -9 0 4 -35
10 -77 13 -43 4 -89 9 -103 11 -14 2 -47 6 -73 9 -27 3 -53 8 -58 11 -5 4 -9
2 -9 -4z"/>
<path d="M37458 4173 c7 -3 16 -2 19 1 4 3 -2 6 -13 5 -11 0 -14 -3 -6 -6z"/>
<path d="M26885 4150 c-4 -6 20 -10 67 -10 40 -1 121 -3 180 -5 59 -2 110 0
113 5 3 4 -72 9 -166 10 -95 0 -176 3 -180 6 -4 2 -10 0 -14 -6z"/>
<path d="M27260 4138 c0 -4 26 -8 57 -8 31 0 53 3 50 6 -9 10 -107 11 -107 2z"/>
<path d="M27397 4138 c-7 -4 16 -8 50 -8 34 0 64 4 67 9 7 11 -100 9 -117 -1z"/>
<path d="M27534 4143 c3 -4 17 -8 29 -10 17 -2 19 -1 7 7 -17 11 -47 14 -36 3z"/>
<path d="M27590 4138 c0 -3 41 -6 90 -6 50 0 90 3 90 8 0 4 -40 7 -90 6 -49 0
-90 -4 -90 -8z"/>
<path d="M27780 4142 c0 -11 97 -15 103 -5 3 5 -19 9 -49 11 -30 1 -54 -1 -54
-6z"/>
<path d="M27907 4139 c7 -7 15 -10 18 -7 3 3 -2 9 -12 12 -14 6 -15 5 -6 -5z"/>
<path d="M27940 4140 c0 -5 5 -10 11 -10 5 0 7 5 4 10 -3 6 -8 10 -11 10 -2 0
-4 -4 -4 -10z"/>
<path d="M27970 4139 c0 -5 11 -9 25 -9 14 0 25 2 25 4 0 2 -11 6 -25 8 -14 3
-25 1 -25 -3z"/>
<path d="M28040 4140 c-11 -7 -7 -10 18 -10 17 0 32 5 32 10 0 13 -30 13 -50
0z"/>
<path d="M28100 4140 c0 -4 72 -7 161 -8 89 0 158 2 155 6 -9 9 -316 11 -316
2z"/>
<path d="M28430 4139 c0 -5 14 -9 30 -9 17 0 30 4 30 8 0 5 -13 9 -30 10 -16
0 -30 -4 -30 -9z"/>
<path d="M28510 4140 c0 -5 5 -10 10 -10 6 0 10 5 10 10 0 6 -4 10 -10 10 -5
0 -10 -4 -10 -10z"/>
<path d="M28557 4138 c-7 -4 39 -7 102 -7 62 0 110 3 106 7 -9 9 -194 9 -208
0z"/>
<path d="M28786 4139 c6 -10 224 -11 224 -1 0 4 -52 7 -115 8 -63 0 -112 -3
-109 -7z"/>
<path d="M29024 4139 c-2 -4 9 -7 26 -7 16 1 30 4 30 8 0 8 -50 8 -56 -1z"/>
<path d="M29090 4141 c0 -4 52 -7 116 -8 63 -1 113 2 109 5 -9 9 -225 11 -225
3z"/>
<path d="M29335 4139 c7 -11 35 -12 35 -1 0 4 -9 8 -20 9 -11 1 -18 -2 -15 -8z"/>
<path d="M29390 4142 c0 -4 25 -8 55 -9 30 -1 55 2 55 7 0 5 -25 9 -55 9 -30
0 -55 -3 -55 -7z"/>
<path d="M39837 3419 c7 -7 15 -10 18 -7 3 3 -2 9 -12 12 -14 6 -15 5 -6 -5z"/>
<path d="M34587 2634 c-1 -1 -54 -4 -117 -7 -135 -6 -190 -20 -190 -46 0 -15
16 -23 78 -39 146 -38 316 -69 422 -77 30 -2 78 -7 105 -10 28 -3 79 -8 115
-10 36 -3 79 -7 95 -9 63 -9 202 -9 193 0 -8 7 -44 11 -168 19 -58 3 -116 8
-130 10 -14 3 -72 7 -129 10 -56 3 -106 7 -110 9 -3 2 -22 7 -41 10 -34 5
-171 33 -217 43 -13 3 -23 9 -23 13 0 5 -8 6 -18 3 -11 -2 -24 3 -32 14 -8 10
-10 15 -6 11 5 -4 16 -2 24 4 8 7 24 14 36 15 11 2 37 5 56 8 44 6 302 7 395
1 91 -6 259 -14 460 -21 288 -10 468 -21 525 -32 19 -3 46 -7 60 -9 14 -1 34
-4 46 -7 11 -3 47 -8 79 -11 32 -4 61 -8 64 -10 3 -3 33 -7 66 -11 33 -3 85
-13 116 -20 31 -8 66 -15 78 -15 12 0 21 -4 21 -9 0 -6 9 -8 20 -6 11 2 23 -2
26 -8 4 -7 4 -9 -1 -5 -4 4 -14 3 -22 -4 -28 -23 -575 -24 -980 -3 -78 5 -113
3 -113 -4 0 -6 23 -12 53 -12 28 -1 63 -3 77 -4 121 -13 1407 -29 1450 -18 38
10 16 43 -31 49 -19 2 -50 6 -69 9 -19 3 -54 8 -78 10 -23 2 -62 7 -85 11 -23
4 -53 8 -67 10 -14 1 -89 9 -168 18 -79 9 -153 18 -165 21 -30 6 -111 16 -177
21 -30 2 -66 6 -80 9 -46 10 -65 13 -125 19 -176 19 -252 23 -569 31 -131 4
-248 8 -260 11 -34 7 -482 24 -489 18z"/>
<path d="M35300 2430 c0 -5 14 -10 30 -10 17 0 30 5 30 10 0 6 -13 10 -30 10
-16 0 -30 -4 -30 -10z"/>
<path d="M36976 2416 c3 -8 12 -12 20 -9 17 6 9 23 -11 23 -8 0 -12 -6 -9 -14z"/>
<path d="M39021 933 c-9 -15 -12 -16 -20 -4 -7 11 -10 9 -16 -8 -3 -11 -11
-21 -16 -21 -5 0 -9 -5 -9 -11 0 -5 5 -7 10 -4 6 4 25 -9 43 -27 29 -30 79
-56 150 -78 20 -7 27 -5 27 5 0 8 -15 17 -35 21 -19 3 -33 11 -32 17 1 6 -3
11 -10 12 -15 0 -63 42 -63 55 0 5 5 10 11 10 5 0 7 -4 4 -10 -3 -5 -1 -10 4
-10 17 0 13 18 -6 29 -17 10 -16 10 2 12 93 5 255 -2 255 -12 0 -5 7 -6 15 -3
8 4 15 1 15 -5 0 -6 3 -10 8 -9 14 3 74 -14 121 -35 25 -12 48 -22 51 -22 7
-2 35 -13 94 -36 27 -11 66 -22 85 -25 49 -8 127 -46 124 -61 -2 -7 4 -10 12
-7 8 4 15 1 15 -5 0 -6 -5 -11 -11 -11 -5 0 -8 -4 -5 -8 8 -13 -193 -1 -278
17 -22 5 -48 9 -56 9 -8 -1 -35 5 -60 12 -25 8 -49 13 -53 11 -5 -1 -23 3 -40
9 -138 44 -157 48 -157 29 0 -5 4 -8 8 -5 5 3 21 -2 36 -10 16 -7 38 -14 50
-14 12 0 27 -5 34 -12 7 -7 12 -9 12 -5 0 3 12 2 28 -4 25 -10 80 -21 172 -35
19 -2 49 -8 65 -11 17 -4 37 -8 45 -10 37 -7 218 -20 250 -18 19 2 50 3 68 4
37 1 39 18 4 42 -12 8 -19 19 -15 22 3 4 -3 7 -15 7 -11 0 -24 5 -27 10 -4 6
-11 8 -16 5 -5 -4 -9 -2 -9 4 0 6 -7 8 -15 5 -8 -4 -15 -1 -15 6 0 7 -7 10
-15 7 -8 -4 -17 -2 -20 4 -4 5 -11 7 -16 4 -5 -4 -9 -2 -9 4 0 5 -8 10 -17 9
-10 0 -29 3 -43 7 -14 4 -41 10 -60 15 -19 4 -48 15 -65 24 -16 9 -35 16 -41
16 -7 0 -31 9 -55 19 -24 11 -47 17 -51 15 -4 -3 -8 -1 -8 5 0 12 -112 48
-179 58 -63 10 -212 8 -235 -2 -14 -6 -17 -5 -12 3 4 7 5 12 2 12 -3 0 -10 -8
-15 -17z"/>
</g>
</svg>
